<svg width="512" height="512" viewBox="0 0 512 512" xmlns="http://www.w3.org/2000/svg">
  <!-- Background circle -->
  <circle cx="256" cy="256" r="256" fill="#0f172a"/>
  
  <!-- Horse silhouette -->
  <path d="M256 100 L280 140 L300 180 L320 220 L340 260 L360 300 L380 340 L400 380 L420 400 L400 420 L380 400 L360 380 L340 360 L320 340 L300 320 L280 300 L260 280 L240 300 L220 320 L200 340 L180 360 L160 380 L140 400 L120 420 L100 400 L120 380 L140 340 L160 300 L180 260 L200 220 L220 180 L240 140 Z" fill="#fbbf24" stroke="#f59e0b" stroke-width="4"/>
  
  <!-- Racing track lines -->
  <line x1="100" y1="400" x2="412" y2="400" stroke="#64748b" stroke-width="8" stroke-linecap="round"/>
  <line x1="120" y1="420" x2="392" y2="420" stroke="#64748b" stroke-width="4" stroke-linecap="round"/>
  
  <!-- Text -->
  <text x="256" y="480" font-family="Arial, sans-serif" font-size="48" font-weight="bold" fill="#ffffff" text-anchor="middle">PJ</text>
</svg>

